# WaveFront *.obj file (generated by Autodesk ATF)

mtllib dc3ce07d-e4c8-40f2-b925-d459dcf17e85.mtl

g Body1

v -259.807621 -187.615177 694.000000
v -219.381146 -257.635886 694.000000
v 219.381146 -257.635886 694.000000
v 259.807621 -187.615177 694.000000
v 41.037818 191.305237 694.000000
v -41.037818 191.305237 694.000000
v -406.999948 -408.186611 0.000000
v -481.999948 -278.282800 0.000000
v -75.000109 426.661600 0.000000
v 75.000109 426.661600 0.000000
v 481.999948 -278.282800 0.000000
v 406.999948 -408.186611 0.000000
vt -21.938115 -17.306810 0.000000
vt 21.938115 -17.306810 0.000000
vt -25.980762 -10.304739 0.000000
vt 25.980762 -10.304739 0.000000
vt -4.103782 27.587302 0.000000
vt 4.103782 27.587302 0.000000
vt -40.699995 -32.158402 0.000000
vt 40.699995 -32.158402 0.000000
vt -48.199995 -19.168021 0.000000
vt 48.199995 -19.168021 0.000000
vt -7.500011 51.326419 0.000000
vt 7.500011 51.326419 0.000000
vt 2.758895 -14.744100 0.000000
vt 74.194458 2.343428 0.000000
vt 0.000000 -0.000000 0.000000
vt 72.707360 10.290788 0.000000
vt 0.000000 81.399990 0.000000
vt -71.014190 62.638109 0.000000
vt 0.000000 0.000000 0.000000
vt -71.014190 18.761880 0.000000
vt 0.000000 0.000000 0.000000
vt 2.758895 14.744100 0.000000
vt -71.435564 17.087528 0.000000
vt -69.948465 25.034888 0.000000
vt 0.000000 0.000000 0.000000
vt -9.675136 80.822933 0.000000
vt -72.692508 10.395179 0.000000
vt -77.893069 53.838973 0.000000
vt 0.000000 0.000000 0.000000
vt 0.000000 -15.000022 0.000000
vt 73.282236 -3.396229 0.000000
vt 73.282236 -11.603793 0.000000
vt -9.675136 -80.822933 0.000000
vt 63.017372 -70.427754 0.000000
vt 0.000000 0.000000 0.000000
vt 68.217933 -26.983960 0.000000
vn 0.000000 0.000000 0.100000
vn 0.000000 0.000000 0.100000
vn 0.000000 0.000000 0.100000
vn 0.000000 0.000000 0.100000
vn 0.000000 0.000000 0.100000
vn 0.000000 0.000000 0.100000
vn 0.000000 0.000000 -0.100000
vn 0.000000 0.000000 -0.100000
vn 0.000000 0.000000 -0.100000
vn 0.000000 0.000000 -0.100000
vn 0.000000 0.000000 -0.100000
vn 0.000000 0.000000 -0.100000
vn -0.081928 -0.047301 0.032410
vn -0.081928 -0.047301 0.032410
vn -0.081928 -0.047301 0.032410
vn -0.081928 -0.047301 0.032410
vn -0.000000 -0.097727 0.021200
vn -0.000000 -0.097727 0.021200
vn -0.000000 -0.097727 0.021200
vn -0.000000 -0.097727 0.021200
vn 0.081928 -0.047301 0.032410
vn 0.081928 -0.047301 0.032410
vn 0.081928 -0.047301 0.032410
vn 0.081928 -0.047301 0.032410
vn 0.084721 0.048913 0.020734
vn 0.084721 0.048913 0.020734
vn 0.084721 0.048913 0.020734
vn 0.084721 0.048913 0.020734
vn 0.000000 0.094702 0.032116
vn 0.000000 0.094702 0.032116
vn 0.000000 0.094702 0.032116
vn 0.000000 0.094702 0.032116
vn -0.084721 0.048913 0.020734
vn -0.084721 0.048913 0.020734
vn -0.084721 0.048913 0.020734
vn -0.084721 0.048913 0.020734
usemtl Steel_-_Satin
f 2/1/1 3/2/2 1/3/3
f 1/3/3 3/2/2 4/4/4
f 1/3/3 4/4/4 6/5/5
f 6/5/5 4/4/4 5/6/6
f 12/7/7 7/8/8 11/9/9
f 11/9/9 7/8/8 8/10/10
f 11/9/9 8/10/10 10/11/11
f 10/11/11 8/10/10 9/12/12
f 7/13/13 2/14/14 8/15/15
f 8/15/15 2/14/14 1/16/16
f 12/17/17 3/18/18 7/19/19
f 7/19/19 3/18/18 2/20/20
f 12/21/21 11/22/22 3/23/23
f 3/23/23 11/22/22 4/24/24
f 11/25/25 10/26/26 4/27/27
f 4/27/27 10/26/26 5/28/28
f 10/29/29 9/30/30 5/31/31
f 5/31/31 9/30/30 6/32/32
f 8/33/33 1/34/34 9/35/35
f 9/35/35 1/34/34 6/36/36

# 12 vertices
# 36 texture params
# 36 normals
# 20 facets

# 1 groups
