# WaveFront *.obj file (generated by Autodesk ATF)

mtllib 87d4f790-3021-42a6-8696-3a29a2658620.mtl

g Body1

v 3125.000000 126.000000 5.100000
v 0.000000 126.000000 5.100000
v 0.000000 0.000000 5.100000
v 3125.000000 0.000000 5.100000
v -0.000000 154.500000 417.100000
v 3125.000000 154.500000 417.100000
v 3125.000000 154.500000 1532.100000
v 0.000000 154.500000 1532.100000
v 3125.000000 194.500000 417.100000
v -0.000000 194.500000 417.100000
v 0.000000 194.500000 1532.100000
v 3125.000000 194.500000 1532.100000
v 0.000000 126.000000 417.100000
v 3125.000000 126.000000 417.100000
v 3125.000000 224.000000 417.100000
v 0.000000 224.000000 417.100000
v 3125.000000 224.000000 0.100000
v 0.000000 224.000000 0.100000
v 3125.000000 350.000000 0.000000
v 0.000000 350.000000 0.000000
v 0.000000 350.000000 0.100000
v 3125.000000 350.000000 0.100000
v 3125.000000 0.000000 0.000000
v 0.000000 0.000000 0.000000
vt 156.250000 -4.900000 0.000000
vt -156.250000 -4.900000 0.000000
vt 156.250000 -17.500000 0.000000
vt -156.250000 -17.500000 0.000000
vt -0.000000 0.000000 0.000000
vt 312.500000 0.000000 0.000000
vt 0.000000 111.500000 0.000000
vt 312.500000 111.500000 0.000000
vt -0.000000 0.000000 0.000000
vt 312.500000 0.000000 0.000000
vt -0.000000 111.500000 0.000000
vt 312.500000 111.500000 0.000000
vt 156.250000 2.000000 0.000000
vt -156.250000 2.000000 0.000000
vt 156.250000 -2.000000 0.000000
vt -156.250000 -2.000000 0.000000
vt 156.250000 -2.050000 0.000000
vt -156.250000 -2.050000 0.000000
vt 156.250000 -4.900000 0.000000
vt -156.250000 -4.900000 0.000000
vt -156.250000 1.950000 0.000000
vt 156.250000 1.950000 0.000000
vt -156.250000 4.900000 0.000000
vt 156.250000 4.900000 0.000000
vt -0.000000 0.000000 0.000000
vt 312.500000 0.000000 0.000000
vt -0.000000 41.700000 0.000000
vt 312.500000 41.700000 0.000000
vt 0.000000 0.500000 0.000000
vt 312.500000 0.500000 0.000000
vt 0.000000 41.700000 0.000000
vt 312.500000 41.700000 0.000000
vt 0.000000 0.000000 0.000000
vt 312.500000 0.000000 0.000000
vt 0.000000 0.010000 0.000000
vt 312.500000 0.010000 0.000000
vt 35.000000 0.000000 0.000000
vt 22.400000 0.010000 0.000000
vt 0.000000 0.000000 0.000000
vt 12.600000 0.510000 0.000000
vt 0.000000 0.510000 0.000000
vt 35.000000 0.010000 0.000000
vt 22.400000 41.710000 0.000000
vt 19.450000 41.710000 0.000000
vt 19.450000 153.210000 0.000000
vt 15.450000 153.210000 0.000000
vt 15.450000 41.710000 0.000000
vt 12.600000 41.710000 0.000000
vt 0.000000 0.000000 0.000000
vt 312.500000 0.000000 0.000000
vt 0.000000 0.510000 0.000000
vt 312.500000 0.510000 0.000000
vt 0.000000 0.010000 0.000000
vt 0.000000 0.000000 0.000000
vt 12.600000 0.010000 0.000000
vt 35.000000 0.000000 0.000000
vt 22.400000 0.510000 0.000000
vt 35.000000 0.510000 0.000000
vt 22.400000 41.710000 0.000000
vt 19.550000 41.710000 0.000000
vt 15.550000 41.710000 0.000000
vt 12.600000 41.710000 0.000000
vt 19.550000 153.210000 0.000000
vt 15.550000 153.210000 0.000000
vt -156.250000 4.900000 0.000000
vt 156.250000 4.900000 0.000000
vt -156.250000 17.500000 0.000000
vt 156.250000 17.500000 0.000000
vt 156.250000 17.500000 0.000000
vt -156.250000 17.500000 0.000000
vt 156.250000 -17.500000 0.000000
vt -156.250000 -17.500000 0.000000
vn 0.000000 0.000000 0.100000
vn 0.000000 0.000000 0.100000
vn 0.000000 0.000000 0.100000
vn 0.000000 0.000000 0.100000
vn 0.000000 -0.100000 0.000000
vn 0.000000 -0.100000 0.000000
vn 0.000000 -0.100000 0.000000
vn 0.000000 -0.100000 0.000000
vn 0.000000 0.100000 0.000000
vn 0.000000 0.100000 0.000000
vn 0.000000 0.100000 0.000000
vn 0.000000 0.100000 0.000000
vn 0.000000 0.000000 0.100000
vn 0.000000 0.000000 0.100000
vn 0.000000 0.000000 0.100000
vn 0.000000 0.000000 0.100000
vn 0.000000 0.000000 0.100000
vn 0.000000 0.000000 0.100000
vn 0.000000 0.000000 0.100000
vn 0.000000 0.000000 0.100000
vn 0.000000 0.000000 0.100000
vn 0.000000 0.000000 0.100000
vn 0.000000 0.000000 0.100000
vn 0.000000 0.000000 0.100000
vn 0.000000 0.100000 0.000000
vn 0.000000 0.100000 0.000000
vn 0.000000 0.100000 0.000000
vn 0.000000 0.100000 0.000000
vn 0.000000 -0.100000 0.000000
vn 0.000000 -0.100000 0.000000
vn 0.000000 -0.100000 0.000000
vn 0.000000 -0.100000 0.000000
vn 0.000000 0.100000 0.000000
vn 0.000000 0.100000 0.000000
vn 0.000000 0.100000 0.000000
vn 0.000000 0.100000 0.000000
vn 0.100000 0.000000 0.000000
vn 0.100000 0.000000 0.000000
vn 0.100000 0.000000 0.000000
vn 0.100000 0.000000 0.000000
vn 0.100000 0.000000 0.000000
vn 0.100000 0.000000 0.000000
vn 0.100000 0.000000 0.000000
vn 0.100000 0.000000 0.000000
vn 0.100000 0.000000 0.000000
vn 0.100000 0.000000 0.000000
vn 0.100000 0.000000 0.000000
vn 0.100000 0.000000 0.000000
vn 0.000000 -0.100000 0.000000
vn 0.000000 -0.100000 0.000000
vn 0.000000 -0.100000 0.000000
vn 0.000000 -0.100000 0.000000
vn -0.100000 0.000000 0.000000
vn -0.100000 0.000000 0.000000
vn -0.100000 0.000000 0.000000
vn -0.100000 0.000000 0.000000
vn -0.100000 0.000000 0.000000
vn -0.100000 0.000000 0.000000
vn -0.100000 0.000000 0.000000
vn -0.100000 0.000000 0.000000
vn -0.100000 0.000000 0.000000
vn -0.100000 0.000000 0.000000
vn -0.100000 0.000000 0.000000
vn -0.100000 0.000000 0.000000
vn 0.000000 0.000000 0.100000
vn 0.000000 0.000000 0.100000
vn 0.000000 0.000000 0.100000
vn 0.000000 0.000000 0.100000
vn 0.000000 0.000000 -0.100000
vn 0.000000 0.000000 -0.100000
vn 0.000000 0.000000 -0.100000
vn 0.000000 0.000000 -0.100000
usemtl Steel_-_Satin
f 1/1/1 2/2/2 4/3/3
f 4/3/3 2/2/2 3/4/4
f 5/5/5 6/6/6 8/7/7
f 8/7/7 6/6/6 7/8/8
f 9/9/9 10/10/10 12/11/11
f 12/11/11 10/10/10 11/12/12
f 12/13/13 11/14/14 7/15/15
f 7/15/15 11/14/14 8/16/16
f 6/17/17 5/18/18 14/19/19
f 14/19/19 5/18/18 13/20/20
f 10/21/21 9/22/22 16/23/23
f 16/23/23 9/22/22 15/24/24
f 17/25/25 18/26/26 15/27/27
f 15/27/27 18/26/26 16/28/28
f 2/29/29 1/30/30 13/31/31
f 13/31/31 1/30/30 14/32/32
f 19/33/33 20/34/34 22/35/35
f 22/35/35 20/34/34 21/36/36
f 19/37/37 17/38/38 23/39/39
f 23/39/39 17/38/38 1/40/40
f 23/39/39 1/40/40 4/41/41
f 19/37/37 22/42/42 17/38/38
f 15/43/43 9/44/44 17/38/38
f 17/38/38 9/44/44 1/40/40
f 12/45/45 7/46/46 9/44/44
f 9/44/44 7/46/46 6/47/47
f 9/44/44 6/47/47 1/40/40
f 1/40/40 6/47/47 14/48/48
f 24/49/49 23/50/50 3/51/51
f 3/51/51 23/50/50 4/52/52
f 21/53/53 20/54/54 18/55/55
f 18/55/55 20/54/54 24/56/56
f 18/55/55 24/56/56 2/57/57
f 2/57/57 24/56/56 3/58/58
f 13/59/59 5/60/60 2/57/57
f 2/57/57 5/60/60 10/61/61
f 2/57/57 10/61/61 18/55/55
f 18/55/55 10/61/61 16/62/62
f 8/63/63 11/64/64 5/60/60
f 5/60/60 11/64/64 10/61/61
f 18/65/65 17/66/66 21/67/67
f 21/67/67 17/66/66 22/68/68
f 20/69/69 19/70/70 24/71/71
f 24/71/71 19/70/70 23/72/72

# 24 vertices
# 72 texture params
# 72 normals
# 44 facets

# 1 groups
