# WaveFront *.obj file (generated by Autodesk ATF)

mtllib e8c40526-5ee5-4ab6-8487-d14611c180ee.mtl

g Body2

v 350.000000 250.000000 100.000000
v 350.000000 250.000000 160.000000
v 0.000000 250.000000 160.000000
v 0.000000 250.000000 100.000000
v 350.000000 100.000000 160.000000
v 0.000000 100.000000 160.000000
v 350.000000 100.000000 100.000000
v 0.000000 100.000000 100.000000
v 350.000000 350.000000 0.000000
v 0.000000 350.000000 0.000000
v 0.000000 350.000000 260.000000
v 350.000000 350.000000 260.000000
v 350.000000 0.000000 0.000000
v 350.000000 0.000000 260.000000
v 0.000000 0.000000 0.000000
v 0.000000 0.000000 260.000000
vt -6.000000 0.000000 0.000000
vt -0.000000 0.000000 0.000000
vt -6.000000 35.000000 0.000000
vt -0.000000 35.000000 0.000000
vt -15.000000 0.000000 0.000000
vt -0.000000 0.000000 0.000000
vt -15.000000 35.000000 0.000000
vt -0.000000 35.000000 0.000000
vt -6.000000 0.000000 0.000000
vt -0.000000 0.000000 0.000000
vt -6.000000 35.000000 0.000000
vt -0.000000 35.000000 0.000000
vt -15.000000 0.000000 0.000000
vt -0.000000 0.000000 0.000000
vt -15.000000 35.000000 0.000000
vt -0.000000 35.000000 0.000000
vt 0.000000 0.000000 0.000000
vt 35.000000 0.000000 0.000000
vt 0.000000 26.000000 0.000000
vt 35.000000 26.000000 0.000000
vt 25.000000 10.000000 0.000000
vt 35.000000 0.000000 0.000000
vt 25.000000 16.000000 0.000000
vt 35.000000 26.000000 0.000000
vt 0.000000 26.000000 0.000000
vt 10.000000 10.000000 0.000000
vt 0.000000 0.000000 0.000000
vt 10.000000 16.000000 0.000000
vt 0.000000 0.000000 0.000000
vt 35.000000 0.000000 0.000000
vt 0.000000 26.000000 0.000000
vt 35.000000 26.000000 0.000000
vt 10.000000 16.000000 0.000000
vt 0.000000 0.000000 0.000000
vt 10.000000 10.000000 0.000000
vt 35.000000 0.000000 0.000000
vt 25.000000 10.000000 0.000000
vt 25.000000 16.000000 0.000000
vt 35.000000 26.000000 0.000000
vt 0.000000 26.000000 0.000000
vt -17.500000 -17.500000 0.000000
vt 17.500000 -17.500000 0.000000
vt -17.500000 17.500000 0.000000
vt 17.500000 17.500000 0.000000
vt 17.500000 17.500000 0.000000
vt -17.500000 17.500000 0.000000
vt 17.500000 -17.500000 0.000000
vt -17.500000 -17.500000 0.000000
vn 0.000000 -0.100000 0.000000
vn 0.000000 -0.100000 0.000000
vn 0.000000 -0.100000 0.000000
vn 0.000000 -0.100000 0.000000
vn -0.000000 0.000000 -0.100000
vn -0.000000 0.000000 -0.100000
vn -0.000000 0.000000 -0.100000
vn -0.000000 0.000000 -0.100000
vn -0.000000 0.100000 -0.000000
vn -0.000000 0.100000 -0.000000
vn -0.000000 0.100000 -0.000000
vn -0.000000 0.100000 -0.000000
vn 0.000000 0.000000 0.100000
vn 0.000000 0.000000 0.100000
vn 0.000000 0.000000 0.100000
vn 0.000000 0.000000 0.100000
vn 0.000000 0.100000 0.000000
vn 0.000000 0.100000 0.000000
vn 0.000000 0.100000 0.000000
vn 0.000000 0.100000 0.000000
vn 0.100000 0.000000 0.000000
vn 0.100000 0.000000 0.000000
vn 0.100000 0.000000 0.000000
vn 0.100000 0.000000 0.000000
vn 0.100000 0.000000 0.000000
vn 0.100000 0.000000 0.000000
vn 0.100000 0.000000 0.000000
vn 0.100000 0.000000 0.000000
vn 0.000000 -0.100000 0.000000
vn 0.000000 -0.100000 0.000000
vn 0.000000 -0.100000 0.000000
vn 0.000000 -0.100000 0.000000
vn -0.100000 0.000000 0.000000
vn -0.100000 0.000000 0.000000
vn -0.100000 0.000000 0.000000
vn -0.100000 0.000000 0.000000
vn -0.100000 0.000000 0.000000
vn -0.100000 0.000000 0.000000
vn -0.100000 0.000000 0.000000
vn -0.100000 0.000000 0.000000
vn 0.000000 0.000000 0.100000
vn 0.000000 0.000000 0.100000
vn 0.000000 0.000000 0.100000
vn 0.000000 0.000000 0.100000
vn 0.000000 0.000000 -0.100000
vn 0.000000 0.000000 -0.100000
vn 0.000000 0.000000 -0.100000
vn 0.000000 0.000000 -0.100000
usemtl Steel_-_Satin
f 1/1/1 2/2/2 4/3/3
f 4/3/3 2/2/2 3/4/4
f 2/5/5 5/6/6 3/7/7
f 3/7/7 5/6/6 6/8/8
f 5/9/9 7/10/10 6/11/11
f 6/11/11 7/10/10 8/12/12
f 7/13/13 1/14/14 8/15/15
f 8/15/15 1/14/14 4/16/16
f 9/17/17 10/18/18 12/19/19
f 12/19/19 10/18/18 11/20/20
f 1/21/21 9/22/22 2/23/23
f 2/23/23 9/22/22 12/24/24
f 2/23/23 12/24/24 14/25/25
f 1/21/21 7/26/26 9/22/22
f 9/22/22 7/26/26 13/27/27
f 13/27/27 7/26/26 5/28/28
f 13/27/27 5/28/28 14/25/25
f 14/25/25 5/28/28 2/23/23
f 15/29/29 13/30/30 16/31/31
f 16/31/31 13/30/30 14/32/32
f 3/33/33 10/34/34 4/35/35
f 4/35/35 10/34/34 15/36/36
f 4/35/35 15/36/36 8/37/37
f 8/37/37 15/36/36 6/38/38
f 6/38/38 15/36/36 16/39/39
f 6/38/38 16/39/39 11/40/40
f 10/34/34 3/33/33 11/40/40
f 11/40/40 3/33/33 6/38/38
f 16/41/41 14/42/42 11/43/43
f 11/43/43 14/42/42 12/44/44
f 10/45/45 9/46/46 15/47/47
f 15/47/47 9/46/46 13/48/48

# 16 vertices
# 48 texture params
# 48 normals
# 32 facets

# 1 groups
